M48
INCH,TZ
T1C0.0079
T2C0.0157
T3C0.0393
T4C0.0394
%
G90
G05
T1
X56050Y-18796
X56050Y-19519
X56411Y-18435
X56411Y-19157
X56411Y-19880
X56772Y-18796
X56772Y-19519
X57134Y-18435
X57134Y-19157
X57134Y-19880
X57495Y-18796
X57495Y-19519
T2
X49311Y-22736
X49902Y-18012
X52756Y-25492
X61811Y-18209
X63287Y-17717
X63287Y-19685
T3
X48228Y-20277
X48228Y-21653
T4
X64173Y-16657
X64173Y-17657
X64173Y-18657
X64173Y-19657
T0
M30
